<svg width="272" height="272" viewBox="0 0 272 272" fill="none" xmlns="http://www.w3.org/2000/svg">
<circle cx="136" cy="136" r="136" fill="#50A000"/>
<g clip-path="url(#clip0_21_139)">
<path d="M137.489 93.2313H164.678C165.302 93.2313 165.899 93.4773 166.34 93.9151C166.78 94.353 167.028 94.9468 167.028 95.5659C167.028 96.1851 166.78 96.7789 166.34 97.2167C165.899 97.6545 165.302 97.9005 164.678 97.9005H137.489C136.866 97.9005 136.268 97.6545 135.827 97.2167C135.387 96.7789 135.139 96.1851 135.139 95.5659C135.139 94.9468 135.387 94.353 135.827 93.9151C136.268 93.4773 136.866 93.2313 137.489 93.2313ZM105.166 97.8937H124.941C125.564 97.8937 126.162 97.6477 126.603 97.2099C127.043 96.7721 127.291 96.1783 127.291 95.5591C127.291 94.9399 127.043 94.3461 126.603 93.9083C126.162 93.4705 125.564 93.2245 124.941 93.2245H105.166C104.543 93.2245 103.945 93.4705 103.504 93.9083C103.064 94.3461 102.816 94.9399 102.816 95.5591C102.816 96.1783 103.064 96.7721 103.504 97.2099C103.945 97.6477 104.543 97.8937 105.166 97.8937ZM105.166 129.003H130.212C130.813 128.971 131.378 128.711 131.791 128.277C132.205 127.844 132.435 127.269 132.435 126.672C132.435 126.075 132.205 125.5 131.791 125.066C131.378 124.633 130.813 124.373 130.212 124.341H105.166C104.566 124.373 104.001 124.633 103.587 125.066C103.174 125.5 102.943 126.075 102.943 126.672C102.943 127.269 103.174 127.844 103.587 128.277C104.001 128.711 104.566 128.971 105.166 129.003ZM84.8322 105.671C82.133 105.671 79.5444 104.606 77.6359 102.709C75.7273 100.813 74.655 98.2409 74.655 95.5591C74.655 92.8772 75.7273 90.3052 77.6359 88.4089C79.5444 86.5125 82.133 85.4471 84.8322 85.4471C87.5313 85.4471 90.1199 86.5125 92.0285 88.4089C93.9371 90.3052 95.0093 92.8772 95.0093 95.5591C95.0093 98.2409 93.9371 100.813 92.0285 102.709C90.1199 104.606 87.5313 105.671 84.8322 105.671ZM84.8322 90.1163C83.4852 90.2666 82.2413 90.9048 81.3379 91.9088C80.4346 92.9128 79.9352 94.2124 79.9352 95.5591C79.9352 96.9058 80.4346 98.2053 81.3379 99.2094C82.2413 100.213 83.4852 100.852 84.8322 101.002C86.1791 100.852 87.4231 100.213 88.3265 99.2094C89.2298 98.2053 89.7292 96.9058 89.7292 95.5591C89.7292 94.2124 89.2298 92.9128 88.3265 91.9088C87.4231 90.9048 86.1791 90.2666 84.8322 90.1163ZM84.8322 136.787C82.133 136.787 79.5444 135.722 77.6359 133.826C75.7273 131.929 74.655 129.357 74.655 126.675C74.655 123.994 75.7273 121.422 77.6359 119.525C79.5444 117.629 82.133 116.563 84.8322 116.563C87.5313 116.563 90.1199 117.629 92.0285 119.525C93.9371 121.422 95.0093 123.994 95.0093 126.675C95.0093 129.357 93.9371 131.929 92.0285 133.826C90.1199 135.722 87.5313 136.787 84.8322 136.787ZM84.8322 121.226C83.479 121.369 82.2269 122.004 81.317 123.01C80.4071 124.015 79.9037 125.32 79.9037 126.672C79.9037 128.024 80.4071 129.328 81.317 130.334C82.2269 131.339 83.479 131.975 84.8322 132.118C86.1854 131.975 87.4375 131.339 88.3474 130.334C89.2573 129.328 89.7607 128.024 89.7607 126.672C89.7607 125.32 89.2573 124.015 88.3474 123.01C87.4375 122.004 86.1854 121.369 84.8322 121.226ZM105.166 160.126H127.105C127.728 160.126 128.326 159.88 128.766 159.442C129.207 159.005 129.455 158.411 129.455 157.792C129.455 157.173 129.207 156.579 128.766 156.141C128.326 155.703 127.728 155.457 127.105 155.457H105.166C104.543 155.457 103.945 155.703 103.504 156.141C103.064 156.579 102.816 157.173 102.816 157.792C102.816 158.411 103.064 159.005 103.504 159.442C103.945 159.88 104.543 160.126 105.166 160.126ZM84.8322 167.904C82.133 167.904 79.5444 166.838 77.6359 164.942C75.7273 163.046 74.655 160.474 74.655 157.792C74.655 155.11 75.7273 152.538 77.6359 150.641C79.5444 148.745 82.133 147.68 84.8322 147.68C87.5313 147.68 90.1199 148.745 92.0285 150.641C93.9371 152.538 95.0093 155.11 95.0093 157.792C95.0093 160.474 93.9371 163.046 92.0285 164.942C90.1199 166.838 87.5313 167.904 84.8322 167.904ZM84.8322 152.342C83.479 152.485 82.2269 153.121 81.317 154.126C80.4071 155.132 79.9037 156.436 79.9037 157.788C79.9037 159.14 80.4071 160.445 81.317 161.45C82.2269 162.456 83.479 163.091 84.8322 163.234C86.1854 163.091 87.4375 162.456 88.3474 161.45C89.2573 160.445 89.7607 159.14 89.7607 157.788C89.7607 156.436 89.2573 155.132 88.3474 154.126C87.4375 153.121 86.1854 152.485 84.8322 152.342ZM149.023 186.573H105.166C104.566 186.606 104.001 186.865 103.587 187.299C103.174 187.733 102.943 188.307 102.943 188.905C102.943 189.502 103.174 190.076 103.587 190.51C104.001 190.944 104.566 191.203 105.166 191.236H149.003C149.603 191.206 150.169 190.949 150.585 190.517C151 190.085 151.233 189.512 151.236 188.914C151.238 188.317 151.011 187.741 150.599 187.306C150.187 186.87 149.624 186.608 149.023 186.573ZM84.8322 199.02C82.178 198.951 79.6557 197.855 77.8028 195.966C75.9499 194.076 74.913 191.543 74.913 188.905C74.913 186.266 75.9499 183.733 77.8028 181.843C79.6557 179.954 82.178 178.858 84.8322 178.789C87.4864 178.858 90.0087 179.954 91.8616 181.843C93.7144 183.733 94.7513 186.266 94.7513 188.905C94.7513 191.543 93.7144 194.076 91.8616 195.966C90.0087 197.855 87.4864 198.951 84.8322 199.02ZM84.8322 183.458C83.479 183.602 82.2269 184.237 81.317 185.243C80.4071 186.248 79.9037 187.552 79.9037 188.905C79.9037 190.257 80.4071 191.561 81.317 192.567C82.2269 193.572 83.479 194.208 84.8322 194.351C86.1854 194.208 87.4375 193.572 88.3474 192.567C89.2573 191.561 89.7607 190.257 89.7607 188.905C89.7607 187.552 89.2573 186.248 88.3474 185.243C87.4375 184.237 86.1854 183.602 84.8322 183.458ZM182.676 184.047V201.334C182.667 204.418 181.43 207.373 179.235 209.554C177.04 211.734 174.066 212.964 170.962 212.973H70.7137C67.6104 212.962 64.6373 211.732 62.4429 209.552C60.2485 207.371 59.0109 204.417 59 201.334V70.6387C59.0127 67.5558 60.2509 64.6028 62.4449 62.4228C64.6389 60.2429 67.611 59.0126 70.7137 59H170.942C174.045 59.0108 177.018 60.2405 179.213 62.4208C181.407 64.6012 182.645 67.5552 182.655 70.6387V106.623C191.533 108.565 199.477 113.462 205.171 120.502C210.866 127.542 213.97 136.303 213.97 145.335C213.97 154.367 210.866 163.128 205.171 170.168C199.477 177.208 191.533 182.105 182.655 184.047H182.676ZM98.9231 74.5547H142.76C148.272 74.4246 146.343 67.1197 146.674 63.6623H94.9956C95.3401 67.1265 93.3763 74.4178 98.9231 74.5547ZM177.991 184.78C119.918 187.333 119.891 103.309 177.991 105.835V70.6387C177.982 68.7865 177.235 67.0131 175.914 65.706C174.594 64.3988 172.806 63.6641 170.942 63.6623H151.373V70.6387C151.373 71.7625 151.15 72.8753 150.717 73.9136C150.284 74.9519 149.65 75.8953 148.85 76.69C148.05 77.4846 147.101 78.115 146.056 78.5451C145.011 78.9751 143.891 79.1965 142.76 79.1965H98.9231C96.6393 79.1947 94.4496 78.2925 92.8348 76.688C91.2199 75.0834 90.3119 72.9078 90.3101 70.6387V63.6623H70.7137C68.855 63.6713 67.075 64.4094 65.7613 65.716C64.4476 67.0226 63.7065 68.7918 63.6993 70.6387V201.334C63.6992 203.186 64.4372 204.962 65.7516 206.274C67.0661 207.587 68.8502 208.329 70.7137 208.338H170.942C172.811 208.336 174.603 207.597 175.924 206.284C177.246 204.971 177.989 203.191 177.991 201.334V184.78ZM209.301 145.311C209.297 138.388 207.227 131.623 203.353 125.869C199.48 120.115 193.976 115.631 187.538 112.985C181.1 110.339 174.017 109.649 167.184 111.002C160.351 112.355 154.076 115.69 149.151 120.586C144.226 125.483 140.872 131.72 139.515 138.51C138.157 145.3 138.856 152.337 141.523 158.732C144.19 165.127 148.706 170.593 154.499 174.438C160.292 178.284 167.103 180.336 174.07 180.336C183.413 180.336 192.373 176.649 198.979 170.086C205.586 163.523 209.299 154.621 209.301 145.338V145.311ZM199.199 139.704L188.34 150.22L190.903 165.069C190.976 165.499 190.928 165.94 190.764 166.343C190.599 166.747 190.326 167.097 189.973 167.356C189.618 167.612 189.198 167.763 188.761 167.793C188.324 167.824 187.887 167.731 187.499 167.527L174.07 160.544L160.647 167.554C160.259 167.767 159.817 167.866 159.374 167.839C158.931 167.813 158.505 167.662 158.145 167.405C157.784 167.148 157.504 166.795 157.338 166.386C157.171 165.978 157.124 165.531 157.202 165.097L159.765 150.247L148.913 139.731C148.598 139.429 148.375 139.044 148.268 138.622C148.162 138.199 148.177 137.755 148.312 137.341C148.447 136.927 148.697 136.558 149.032 136.278C149.367 135.997 149.775 135.815 150.208 135.754L165.216 133.583L172.003 120.076C172.218 119.711 172.525 119.408 172.895 119.197C173.264 118.987 173.682 118.876 174.108 118.876C174.534 118.876 174.952 118.987 175.321 119.197C175.69 119.408 175.998 119.711 176.213 120.076L182.924 133.583L197.932 135.754C198.365 135.817 198.771 135.999 199.105 136.279C199.44 136.56 199.689 136.928 199.824 137.341C199.96 137.755 199.976 138.197 199.872 138.62C199.767 139.042 199.546 139.427 199.234 139.731L199.199 139.704ZM192.516 139.663L180.96 138.026C180.584 137.972 180.226 137.827 179.918 137.605C179.61 137.384 179.36 137.091 179.19 136.753L174.07 126.381L168.916 136.753C168.748 137.092 168.5 137.385 168.193 137.607C167.885 137.829 167.528 137.973 167.152 138.026L155.631 139.69L163.969 147.762C164.241 148.024 164.446 148.347 164.566 148.705C164.686 149.063 164.718 149.444 164.658 149.816L162.694 161.215C166.39 159.131 170.194 157.243 174.091 155.56C177.988 157.243 181.792 159.131 185.487 161.215L183.517 149.816C183.457 149.444 183.488 149.063 183.608 148.705C183.728 148.347 183.933 148.024 184.206 147.762L192.516 139.663Z" fill="white"/>
</g>
<defs>
<clipPath id="clip0_21_139">
<rect width="155" height="154" fill="white" transform="translate(59 59)"/>
</clipPath>
</defs>
</svg>
