<svg width="32" height="32" viewBox="0 0 32 32" fill="none" xmlns="http://www.w3.org/2000/svg">
<path d="M7.5 12.25C7.5 16.925 11.325 20.75 16 20.75C20.675 20.75 24.5 16.925 24.5 12.25C24.5 7.575 20.675 3.75 16 3.75C11.325 3.75 7.5 7.575 7.5 12.25ZM22.5 12.25C22.5 15.825 19.575 18.75 16 18.75C12.425 18.75 9.5 15.825 9.5 12.25C9.5 8.675 12.425 5.75 16 5.75C19.575 5.75 22.5 8.675 22.5 12.25Z" fill="black"/>
<path d="M6.09999 29.85C8.74999 27.2 12.25 25.75 16 25.75C19.75 25.75 23.25 27.2 25.9 29.85L27.325 28.425C24.3 25.425 20.275 23.75 16 23.75C11.725 23.75 7.69999 25.425 4.67499 28.425L6.09999 29.85Z" fill="black"/>
</svg>
