<svg width="17" height="20" viewBox="0 0 17 20" fill="none" xmlns="http://www.w3.org/2000/svg">
<path d="M3.76923 12.7692C5.29863 12.7692 6.53846 11.5293 6.53846 9.99994C6.53846 8.47054 5.29863 7.23071 3.76923 7.23071C2.23983 7.23071 1 8.47054 1 9.99994C1 11.5293 2.23983 12.7692 3.76923 12.7692Z" stroke="black" stroke-linecap="round" stroke-linejoin="round"/>
<path d="M13.4615 19C14.9909 19 16.2307 17.7602 16.2307 16.2308C16.2307 14.7014 14.9909 13.4615 13.4615 13.4615C11.9321 13.4615 10.6923 14.7014 10.6923 16.2308C10.6923 17.7602 11.9321 19 13.4615 19Z" stroke="black" stroke-linecap="round" stroke-linejoin="round"/>
<path d="M13.4615 6.53846C14.9909 6.53846 16.2307 5.29864 16.2307 3.76923C16.2307 2.23983 14.9909 1 13.4615 1C11.9321 1 10.6923 2.23983 10.6923 3.76923C10.6923 5.29864 11.9321 6.53846 13.4615 6.53846Z" stroke="black" stroke-linecap="round" stroke-linejoin="round"/>
<path d="M11.1337 5.26636L6.09717 8.5029" stroke="black" stroke-linecap="round" stroke-linejoin="round"/>
<path d="M6.09717 11.4971L11.1337 14.7336" stroke="black" stroke-linecap="round" stroke-linejoin="round"/>
</svg>
