<svg width="211" height="211" viewBox="0 0 211 211" fill="none" xmlns="http://www.w3.org/2000/svg">
<g clip-path="url(#clip0_11_107)">
<path d="M106.489 62.2313H133.678C134.302 62.2313 134.899 62.4773 135.34 62.9151C135.78 63.353 136.028 63.9468 136.028 64.5659C136.028 65.1851 135.78 65.7789 135.34 66.2167C134.899 66.6545 134.302 66.9005 133.678 66.9005H106.489C105.866 66.9005 105.268 66.6545 104.827 66.2167C104.387 65.7789 104.139 65.1851 104.139 64.5659C104.139 63.9468 104.387 63.353 104.827 62.9151C105.268 62.4773 105.866 62.2313 106.489 62.2313ZM74.1658 66.8937H93.9413C94.5645 66.8937 95.1621 66.6477 95.6028 66.2099C96.0434 65.7721 96.291 65.1783 96.291 64.5591C96.291 63.9399 96.0434 63.3461 95.6028 62.9083C95.1621 62.4705 94.5645 62.2245 93.9413 62.2245H74.1658C73.5427 62.2245 72.945 62.4705 72.5044 62.9083C72.0637 63.3461 71.8162 63.9399 71.8162 64.5591C71.8162 65.1783 72.0637 65.7721 72.5044 66.2099C72.945 66.6477 73.5427 66.8937 74.1658 66.8937ZM74.1658 98.0031H99.2125C99.8128 97.9708 100.378 97.7111 100.791 97.2775C101.205 96.8438 101.435 96.2692 101.435 95.672C101.435 95.0747 101.205 94.5001 100.791 94.0665C100.378 93.6328 99.8128 93.3731 99.2125 93.3408H74.1658C73.5656 93.3731 73.0006 93.6328 72.5872 94.0665C72.1738 94.5001 71.9434 95.0747 71.9434 95.672C71.9434 96.2692 72.1738 96.8438 72.5872 97.2775C73.0006 97.7111 73.5656 97.9708 74.1658 98.0031ZM53.8322 74.671C51.133 74.671 48.5444 73.6057 46.6359 71.7093C44.7273 69.8129 43.655 67.2409 43.655 64.5591C43.655 61.8772 44.7273 59.3052 46.6359 57.4089C48.5444 55.5125 51.133 54.4471 53.8322 54.4471C56.5313 54.4471 59.1199 55.5125 61.0285 57.4089C62.9371 59.3052 64.0093 61.8772 64.0093 64.5591C64.0093 67.2409 62.9371 69.8129 61.0285 71.7093C59.1199 73.6057 56.5313 74.671 53.8322 74.671ZM53.8322 59.1163C52.4852 59.2666 51.2413 59.9048 50.3379 60.9088C49.4346 61.9128 48.9352 63.2124 48.9352 64.5591C48.9352 65.9058 49.4346 67.2053 50.3379 68.2094C51.2413 69.2134 52.4852 69.8515 53.8322 70.0019C55.1791 69.8515 56.4231 69.2134 57.3265 68.2094C58.2298 67.2053 58.7292 65.9058 58.7292 64.5591C58.7292 63.2124 58.2298 61.9128 57.3265 60.9088C56.4231 59.9048 55.1791 59.2666 53.8322 59.1163ZM53.8322 105.787C51.133 105.787 48.5444 104.722 46.6359 102.826C44.7273 100.929 43.655 98.3572 43.655 95.6754C43.655 92.9935 44.7273 90.4215 46.6359 88.5252C48.5444 86.6288 51.133 85.5634 53.8322 85.5634C56.5313 85.5634 59.1199 86.6288 61.0285 88.5252C62.9371 90.4215 64.0093 92.9935 64.0093 95.6754C64.0093 98.3572 62.9371 100.929 61.0285 102.826C59.1199 104.722 56.5313 105.787 53.8322 105.787ZM53.8322 90.2257C52.479 90.369 51.2269 91.0045 50.317 92.01C49.4071 93.0154 48.9037 94.3198 48.9037 95.672C48.9037 97.0241 49.4071 98.3285 50.317 99.334C51.2269 100.339 52.479 100.975 53.8322 101.118C55.1854 100.975 56.4375 100.339 57.3474 99.334C58.2573 98.3285 58.7607 97.0241 58.7607 95.672C58.7607 94.3198 58.2573 93.0154 57.3474 92.01C56.4375 91.0045 55.1854 90.369 53.8322 90.2257ZM74.1658 129.126H96.1049C96.7281 129.126 97.3257 128.88 97.7663 128.442C98.207 128.005 98.4545 127.411 98.4545 126.792C98.4545 126.173 98.207 125.579 97.7663 125.141C97.3257 124.703 96.7281 124.457 96.1049 124.457H74.1658C73.5427 124.457 72.945 124.703 72.5044 125.141C72.0637 125.579 71.8162 126.173 71.8162 126.792C71.8162 127.411 72.0637 128.005 72.5044 128.442C72.945 128.88 73.5427 129.126 74.1658 129.126ZM53.8322 136.904C51.133 136.904 48.5444 135.838 46.6359 133.942C44.7273 132.046 43.655 129.474 43.655 126.792C43.655 124.11 44.7273 121.538 46.6359 119.641C48.5444 117.745 51.133 116.68 53.8322 116.68C56.5313 116.68 59.1199 117.745 61.0285 119.641C62.9371 121.538 64.0093 124.11 64.0093 126.792C64.0093 129.474 62.9371 132.046 61.0285 133.942C59.1199 135.838 56.5313 136.904 53.8322 136.904ZM53.8322 121.342C52.479 121.485 51.2269 122.121 50.317 123.126C49.4071 124.132 48.9037 125.436 48.9037 126.788C48.9037 128.14 49.4071 129.445 50.317 130.45C51.2269 131.456 52.479 132.091 53.8322 132.234C55.1854 132.091 56.4375 131.456 57.3474 130.45C58.2573 129.445 58.7607 128.14 58.7607 126.788C58.7607 125.436 58.2573 124.132 57.3474 123.126C56.4375 122.121 55.1854 121.485 53.8322 121.342ZM118.023 155.573H74.1658C73.5656 155.606 73.0006 155.865 72.5872 156.299C72.1738 156.733 71.9434 157.307 71.9434 157.905C71.9434 158.502 72.1738 159.076 72.5872 159.51C73.0006 159.944 73.5656 160.203 74.1658 160.236H118.003C118.603 160.206 119.169 159.949 119.585 159.517C120 159.085 120.233 158.512 120.236 157.914C120.238 157.317 120.011 156.741 119.599 156.306C119.187 155.87 118.624 155.608 118.023 155.573ZM53.8322 168.02C51.178 167.951 48.6557 166.855 46.8028 164.966C44.9499 163.076 43.913 160.543 43.913 157.905C43.913 155.266 44.9499 152.733 46.8028 150.843C48.6557 148.954 51.178 147.858 53.8322 147.789C56.4864 147.858 59.0087 148.954 60.8616 150.843C62.7144 152.733 63.7513 155.266 63.7513 157.905C63.7513 160.543 62.7144 163.076 60.8616 164.966C59.0087 166.855 56.4864 167.951 53.8322 168.02ZM53.8322 152.458C52.479 152.602 51.2269 153.237 50.317 154.243C49.4071 155.248 48.9037 156.552 48.9037 157.905C48.9037 159.257 49.4071 160.561 50.317 161.567C51.2269 162.572 52.479 163.208 53.8322 163.351C55.1854 163.208 56.4375 162.572 57.3474 161.567C58.2573 160.561 58.7607 159.257 58.7607 157.905C58.7607 156.552 58.2573 155.248 57.3474 154.243C56.4375 153.237 55.1854 152.602 53.8322 152.458ZM151.676 153.047V170.334C151.667 173.418 150.43 176.373 148.235 178.554C146.04 180.734 143.066 181.964 139.962 181.973H39.7137C36.6104 181.962 33.6373 180.732 31.4429 178.552C29.2485 176.371 28.0109 173.417 28 170.334V39.6387C28.0127 36.5558 29.2509 33.6028 31.4449 31.4228C33.6389 29.2429 36.611 28.0126 39.7137 28H139.942C143.045 28.0108 146.018 29.2405 148.213 31.4208C150.407 33.6012 151.645 36.5552 151.655 39.6387V75.6227C160.533 77.5652 168.477 82.4618 174.171 89.5017C179.866 96.5417 182.97 105.303 182.97 114.335C182.97 123.367 179.866 132.128 174.171 139.168C168.477 146.208 160.533 151.105 151.655 153.047H151.676ZM67.9231 43.5547H111.76C117.272 43.4246 115.343 36.1197 115.674 32.6623H63.9956C64.3401 36.1265 62.3763 43.4178 67.9231 43.5547ZM146.991 153.78C88.9182 156.333 88.8906 72.3091 146.991 74.8353V39.6387C146.982 37.7865 146.235 36.0131 144.914 34.706C143.594 33.3988 141.806 32.6641 139.942 32.6623H120.373V39.6387C120.373 40.7625 120.15 41.8753 119.717 42.9136C119.284 43.9519 118.65 44.8953 117.85 45.69C117.05 46.4846 116.101 47.115 115.056 47.5451C114.011 47.9751 112.891 48.1965 111.76 48.1965H67.9231C65.6393 48.1947 63.4496 47.2925 61.8348 45.688C60.2199 44.0834 59.3119 41.9078 59.3101 39.6387V32.6623H39.7137C37.855 32.6713 36.075 33.4094 34.7613 34.716C33.4476 36.0226 32.7065 37.7918 32.6993 39.6387V170.334C32.6992 172.186 33.4372 173.962 34.7516 175.274C36.0661 176.587 37.8502 177.329 39.7137 177.338H139.942C141.811 177.336 143.603 176.597 144.924 175.284C146.246 173.971 146.989 172.191 146.991 170.334V153.78ZM178.301 114.311C178.297 107.388 176.227 100.623 172.353 94.8688C168.48 89.115 162.976 84.6315 156.538 81.9852C150.1 79.3389 143.017 78.6486 136.184 80.0016C129.351 81.3546 123.076 84.6901 118.151 89.5865C113.226 94.4828 109.872 100.72 108.515 107.51C107.157 114.3 107.856 121.337 110.523 127.732C113.19 134.127 117.706 139.593 123.499 143.438C129.292 147.284 136.103 149.336 143.07 149.336C152.413 149.336 161.373 145.649 167.979 139.086C174.586 132.523 178.299 123.621 178.301 114.338V114.311ZM168.199 108.704L157.34 119.22L159.903 134.069C159.976 134.499 159.928 134.94 159.764 135.343C159.599 135.747 159.326 136.097 158.973 136.356C158.618 136.612 158.198 136.763 157.761 136.793C157.324 136.824 156.887 136.731 156.499 136.527L143.07 129.544L129.647 136.554C129.259 136.767 128.817 136.866 128.374 136.839C127.931 136.813 127.505 136.662 127.145 136.405C126.784 136.148 126.504 135.795 126.338 135.386C126.171 134.978 126.124 134.531 126.202 134.097L128.765 119.247L117.913 108.731C117.598 108.429 117.375 108.044 117.268 107.622C117.162 107.199 117.177 106.755 117.312 106.341C117.447 105.927 117.697 105.558 118.032 105.278C118.367 104.997 118.775 104.815 119.208 104.754L134.216 102.583L141.003 89.0756C141.218 88.7106 141.525 88.4078 141.895 88.1975C142.264 87.9871 142.682 87.8764 143.108 87.8764C143.534 87.8764 143.952 87.9871 144.321 88.1975C144.69 88.4078 144.998 88.7106 145.213 89.0756L151.924 102.583L166.932 104.754C167.365 104.817 167.771 104.999 168.105 105.279C168.44 105.56 168.689 105.928 168.824 106.341C168.96 106.755 168.976 107.197 168.872 107.62C168.767 108.042 168.546 108.427 168.234 108.731L168.199 108.704ZM161.516 108.663L149.96 107.026C149.584 106.972 149.226 106.827 148.918 106.605C148.61 106.384 148.36 106.091 148.19 105.753L143.07 95.381L137.916 105.753C137.748 106.092 137.5 106.385 137.193 106.607C136.885 106.829 136.528 106.973 136.152 107.026L124.631 108.69L132.969 116.762C133.241 117.024 133.446 117.347 133.566 117.705C133.686 118.063 133.718 118.444 133.658 118.816L131.694 130.215C135.39 128.131 139.194 126.243 143.091 124.56C146.988 126.243 150.792 128.131 154.487 130.215L152.517 118.816C152.457 118.444 152.488 118.063 152.608 117.705C152.728 117.347 152.933 117.024 153.206 116.762L161.516 108.663Z" fill="white"/>
</g>
<defs>
<clipPath id="clip0_11_107">
<rect width="155" height="154" fill="white" transform="translate(28 28)"/>
</clipPath>
</defs>
</svg>
